{"title":"BangBus Episode 1 - monica Re-encoded to .mp4 {2bUnique}","uid":9901327,"size":553539031,"categoryP":"porn","categoryS":"movies","magnet":"?xt=urn:btih:fdbce9532ae66626d83341ddefd17f7b44326b4f&amp;dn=BangBus+Episode+1+-+monica+Re-encoded+to+.mp4+%7B2bUnique%7D&amp;tr=udp%3A%2F%2Ftracker.openbittorrent.com%3A80&amp;tr=udp%3A%2F%2Fopen.demonii.com%3A1337&amp;tr=udp%3A%2F%2Ftracker.coppersurfer.tk%3A6969&amp;tr=udp%3A%2F%2Fexodus.desync.com%3A6969","seeders":0,"leechers":2,"uploader":"2bUnique","files":1,"time":1396775628,"description":"Summary \nFound in Miami, Monica is a sexy woman, with an adventurous spirit. Her one and only shoot was with BangBros.\n\nMonica was the first chick ever banged on the bang bus and this remastered video is a classic. It's all there - her hesitation and that juicy Latina body that finally gets drilled!\n\n\nGeneral\nFormat : MPEG-4\nFormat profile : Base Media\nCodec ID : isom\nFile size : 528 MiB\nDuration : 1h 9mn\nOverall bit rate mode : Constant\nOverall bit rate : 1 066 Kbps\nWriting application : Lavf52.110.0\n\nVideo\nID : 1\nFormat : MPEG-4 Visual\nFormat profile : Simple@L1\nFormat settings, BVOP : No\nFormat settings, QPel : No\nFormat settings, GMC : No warppoints\nFormat settings, Matrix : Default (H.263)\nCodec ID : 20\nDuration : 1h 9mn\nBit rate mode : Constant\nBit rate : 1 011 Kbps\nWidth : 320 pixels\nHeight : 240 pixels\nDisplay aspect ratio : 4:3\nFrame rate mode : Constant\nFrame rate : 25.000 fps\nColor space : YUV\nChroma subsampling : 4:2:0\nBit depth : 8 bits\nScan type : Progressive\nCompression mode : Lossy\nBits/(Pixel*Frame) : 0.526\nStream size : 501 MiB (95%)\nWriting library : Lavc52.122.0\nLanguage : English\n\nAudio\nID : 2\nFormat : AAC\nFormat/Info : Advanced Audio Codec\nFormat profile : LC\nCodec ID : 40\nDuration : 55mn 1s\nBit rate mode : Constant\nBit rate : 64.2 Kbps\nChannel(s) : 2 channels\nChannel positions : Front: L R\nSampling rate : 48.0 KHz\nCompression mode : Lossy\nStream size : 25.3 MiB (5%)\nLanguage : English","torrent":{"xt":"urn:btih:fdbce9532ae66626d83341ddefd17f7b44326b4f","amp;dn":"BangBus+Episode+1+-+monica+Re-encoded+to+.mp4+%7B2bUnique%7D","amp;tr":["udp%3A%2F%2Ftracker.openbittorrent.com%3A80","udp%3A%2F%2Fopen.demonii.com%3A1337","udp%3A%2F%2Ftracker.coppersurfer.tk%3A6969","udp%3A%2F%2Fexodus.desync.com%3A6969"],"infoHash":"fdbce9532ae66626d83341ddefd17f7b44326b4f","infoHashBuffer":{"type":"Buffer","data":[253,188,233,83,42,230,102,38,216,51,65,221,239,209,127,123,68,50,107,79]},"announce":[],"urlList":[]}}